{
    "asset" : {
        "generator" : "Khronos glTF Blender I/O v1.7.33",
        "version" : "2.0"
    },
    "scene" : 0,
    "scenes" : [
        {
            "name" : "Scene",
            "nodes" : [
                0
            ]
        }
    ],
    "nodes" : [
        {
            "mesh" : 0,
            "name" : "Chunk_LP"
        }
    ],
    "materials" : [
        {
            "doubleSided" : true,
            "name" : "DefaultMaterial",
            "pbrMetallicRoughness" : {
                "baseColorFactor" : [
                    0.6000000238418579,
                    0.6000000238418579,
                    0.6000000238418579,
                    1
                ],
                "roughnessFactor" : 0.5527864098548889
            }
        }
    ],
    "meshes" : [
        {
            "name" : "Chunk_LP",
            "primitives" : [
                {
                    "attributes" : {
                        "POSITION" : 0,
                        "NORMAL" : 1,
                        "TEXCOORD_0" : 2
                    },
                    "indices" : 3,
                    "material" : 0
                }
            ]
        }
    ],
    "accessors" : [
        {
            "bufferView" : 0,
            "componentType" : 5126,
            "count" : 3877,
            "max" : [
                6.319596290588379,
                10.540799140930176,
                6.932666301727295
            ],
            "min" : [
                -7.31843900680542,
                0.011416804045438766,
                -4.959414958953857
            ],
            "type" : "VEC3"
        },
        {
            "bufferView" : 1,
            "componentType" : 5126,
            "count" : 3877,
            "type" : "VEC3"
        },
        {
            "bufferView" : 2,
            "componentType" : 5126,
            "count" : 3877,
            "type" : "VEC2"
        },
        {
            "bufferView" : 3,
            "componentType" : 5123,
            "count" : 16860,
            "type" : "SCALAR"
        }
    ],
    "bufferViews" : [
        {
            "buffer" : 0,
            "byteLength" : 46524,
            "byteOffset" : 0
        },
        {
            "buffer" : 0,
            "byteLength" : 46524,
            "byteOffset" : 46524
        },
        {
            "buffer" : 0,
            "byteLength" : 31016,
            "byteOffset" : 93048
        },
        {
            "buffer" : 0,
            "byteLength" : 33720,
            "byteOffset" : 124064
        }
    ],
    "buffers" : [
        {
            "byteLength" : 157784,
            "uri" : "data:application/octet-stream;base64,"
        }
    ]
}
